<svg width="18" height="18" viewBox="0 0 18 18" fill="none" xmlns="http://www.w3.org/2000/svg">
<path d="M16.4837 13.2847L16.2751 15.1617C16.1718 16.0914 15.4311 16.8069 14.5056 16.671C12.6683 16.4012 9.45641 15.4132 6.02214 11.979C2.58791 8.54473 1.59952 5.33246 1.3294 3.49478C1.19334 2.56914 1.90886 1.82824 2.83873 1.72492L4.71533 1.51641C5.50798 1.42833 6.27719 1.81961 6.6728 2.5121L7.38478 3.75842C7.83211 4.54146 7.70006 5.52702 7.06238 6.1647L7.04365 6.18344C6.5708 6.65629 6.37125 7.33971 6.68441 7.93056C6.95828 8.44728 7.40987 9.12405 8.14294 9.85712C8.87601 10.5902 9.55278 11.0418 10.0695 11.3157C10.6603 11.6288 11.3438 11.4293 11.8166 10.9564L11.8354 10.9377C12.473 10.3 13.4586 10.1679 14.2416 10.6153L15.488 11.3273C16.1804 11.7229 16.5717 12.4921 16.4837 13.2847Z" stroke="#DF4646" stroke-width="2" stroke-linecap="round" stroke-linejoin="round"/>
</svg>
