<svg width="24" height="24" viewBox="0 0 24 24" fill="none" xmlns="http://www.w3.org/2000/svg">
<path d="M11 11.9004V17.0004C11 17.2657 11.1054 17.52 11.2929 17.7076C11.4804 17.8951 11.7348 18.0004 12 18.0004C12.2652 18.0004 12.5196 17.8951 12.7071 17.7076C12.8946 17.52 13 17.2657 13 17.0004V11.9004C14.214 11.6526 15.2928 10.9629 16.0272 9.96486C16.7616 8.96685 17.0992 7.73172 16.9747 6.49892C16.8501 5.26612 16.2723 4.12347 15.3532 3.29251C14.434 2.46154 13.2391 2.00146 12 2.00146C10.7609 2.00146 9.56598 2.46154 8.64685 3.29251C7.72771 4.12347 7.14986 5.26612 7.02532 6.49892C6.90078 7.73172 7.23843 8.96685 7.9728 9.96486C8.70718 10.9629 9.78596 11.6526 11 11.9004ZM12 4.00044C12.5933 4.00044 13.1734 4.17639 13.6667 4.50604C14.1601 4.83568 14.5446 5.30422 14.7716 5.85239C14.9987 6.40057 15.0581 7.00377 14.9424 7.58572C14.8266 8.16766 14.5409 8.70221 14.1213 9.12177C13.7018 9.54132 13.1672 9.82705 12.5853 9.9428C12.0033 10.0586 11.4001 9.99915 10.8519 9.77208C10.3038 9.54502 9.83524 9.1605 9.50559 8.66716C9.17595 8.17381 9 7.59379 9 7.00044C9 6.2048 9.31607 5.44173 9.87868 4.87912C10.4413 4.31652 11.2044 4.00044 12 4.00044ZM16.21 14.4204C16.0787 14.3929 15.9432 14.3914 15.8113 14.4162C15.6795 14.441 15.5537 14.4915 15.4414 14.5648C15.329 14.6382 15.2322 14.733 15.1565 14.8437C15.0808 14.9545 15.0276 15.0791 15 15.2104C14.9724 15.3418 14.971 15.4772 14.9958 15.6091C15.0205 15.741 15.071 15.8667 15.1444 15.9791C15.2178 16.0914 15.3125 16.1882 15.4233 16.264C15.5341 16.3397 15.6587 16.3929 15.79 16.4204C18.06 16.8704 19 17.6804 19 18.0004C19 18.5804 16.55 20.0004 12 20.0004C7.45 20.0004 5 18.5804 5 18.0004C5 17.6804 5.94 16.8704 8.21 16.3804C8.34132 16.3529 8.46593 16.2997 8.5767 16.224C8.68747 16.1482 8.78224 16.0514 8.8556 15.9391C8.92896 15.8267 8.97947 15.701 9.00424 15.5691C9.02902 15.4372 9.02758 15.3018 9 15.1704C8.97242 15.0391 8.91925 14.9145 8.84352 14.8037C8.76778 14.693 8.67097 14.5982 8.55861 14.5248C8.44626 14.4515 8.32055 14.401 8.18867 14.3762C8.05679 14.3514 7.92132 14.3529 7.79 14.3804C4.75 15.0804 3 16.3904 3 18.0004C3 20.6304 7.53 22.0004 12 22.0004C16.47 22.0004 21 20.6304 21 18.0004C21 16.3904 19.25 15.0804 16.21 14.4204Z" fill="white"/>
</svg>
