<svg width="42" height="42" viewBox="0 0 42 42" fill="none" xmlns="http://www.w3.org/2000/svg">
<rect width="42" height="42" rx="16" fill="white" fill-opacity="0.2"/>
<g clip-path="url(#clip0_28_146)">
<path d="M13.721 21.8811C13.108 23.0861 13.804 23.6621 15.392 24.6461C16.742 25.4801 18.607 25.7851 19.805 25.9071C19.314 26.3791 21.564 24.2151 15.084 30.4481C13.71 31.7651 15.922 33.8781 17.295 32.5891L21.012 29.0041C22.435 30.3731 23.799 31.6851 24.729 32.5941C26.103 33.8881 28.314 31.7931 26.955 30.4531C26.853 30.3561 21.918 25.6221 22.219 25.9121C23.432 25.7901 25.269 25.4671 26.603 24.6511L26.602 24.6501C28.19 23.6611 28.886 23.0861 28.282 21.8811C27.917 21.1971 26.933 20.6251 25.623 21.6141C25.623 21.6141 23.854 22.9691 21.001 22.9691C18.147 22.9691 16.379 21.6141 16.379 21.6141C15.07 20.6201 14.082 21.1971 13.721 21.8811Z" fill="white"/>
<path d="M20.9989 21.142C24.4769 21.142 27.3169 18.424 27.3169 15.078C27.3169 11.718 24.4769 9 20.9989 9C17.5199 9 14.6799 11.718 14.6799 15.078C14.6799 18.424 17.5199 21.142 20.9989 21.142ZM20.9989 12.079C22.7079 12.079 24.1019 13.42 24.1019 15.078C24.1019 16.722 22.7079 18.063 20.9989 18.063C19.2899 18.063 17.8959 16.722 17.8959 15.078C17.8949 13.419 19.2889 12.079 20.9989 12.079Z" fill="white"/>
</g>
<defs>
<clipPath id="clip0_28_146">
<rect width="24" height="24" fill="white" transform="translate(9 9)"/>
</clipPath>
</defs>
</svg>
