<svg width="24" height="24" viewBox="0 0 24 24" fill="none" xmlns="http://www.w3.org/2000/svg">
<path d="M12 9V13.6154" stroke="white" stroke-width="1.5" stroke-linecap="round" stroke-linejoin="round"/>
<path d="M13.5 14C13.5 14.8284 12.8284 15.5 12 15.5C11.1716 15.5 10.5 14.8284 10.5 14C10.5 13.1716 11.1716 12.5 12 12.5C12.8284 12.5 13.5 13.1716 13.5 14Z" fill="white"/>
<path d="M6.54869 7.06644L6.91639 7.72012L6.54869 7.06644ZM6.54869 18.9337L6.181 19.5874L6.181 19.5874L6.54869 18.9337ZM14.4513 20.6212L14.0836 19.9675L14.0836 19.9675L14.4513 20.6212ZM9.54869 20.6212L9.91639 19.9675L9.54869 20.6212ZM17.4513 18.9337L17.819 19.5874L17.819 19.5874L17.4513 18.9337ZM17.4513 7.06644L17.0836 7.72012L17.0836 7.72012L17.4513 7.06644ZM14.4513 5.37894L14.819 4.72526L14.819 4.72526L14.4513 5.37894ZM9.54869 5.37894L9.181 4.72526L9.181 4.72526L9.54869 5.37894ZM14.0836 6.03262L17.0836 7.72012L17.819 6.41276L14.819 4.72526L14.0836 6.03262ZM19.25 11.4243V14.5758H20.75V11.4243H19.25ZM17.0836 18.28L14.0836 19.9675L14.819 21.2749L17.819 19.5874L17.0836 18.28ZM9.91639 19.9675L6.91639 18.28L6.181 19.5874L9.181 21.2749L9.91639 19.9675ZM4.75 14.5758V11.4243H3.25V14.5758H4.75ZM6.91639 7.72012L9.91639 6.03262L9.181 4.72526L6.181 6.41276L6.91639 7.72012ZM4.75 11.4243C4.75 9.8889 5.57816 8.47287 6.91639 7.72012L6.181 6.41276C4.37046 7.43119 3.25 9.34699 3.25 11.4243H4.75ZM6.91639 18.28C5.57816 17.5273 4.75 16.1113 4.75 14.5758H3.25C3.25 16.6532 4.37046 18.569 6.181 19.5874L6.91639 18.28ZM14.0836 19.9675C12.7899 20.6953 11.2101 20.6953 9.91639 19.9675L9.181 21.2749C10.9314 22.2595 13.0686 22.2595 14.819 21.2749L14.0836 19.9675ZM19.25 14.5758C19.25 16.1113 18.4218 17.5273 17.0836 18.28L17.819 19.5874C19.6295 18.569 20.75 16.6532 20.75 14.5758H19.25ZM17.0836 7.72012C18.4218 8.47287 19.25 9.8889 19.25 11.4243H20.75C20.75 9.34699 19.6295 7.43119 17.819 6.41276L17.0836 7.72012ZM14.819 4.72526C13.0686 3.74067 10.9314 3.74067 9.181 4.72526L9.91639 6.03262C11.2101 5.30488 12.7899 5.30488 14.0836 6.03262L14.819 4.72526Z" fill="white"/>
<path d="M6 5L9 3" stroke="white" stroke-width="1.5" stroke-linecap="round"/>
<path d="M18 5L15 3" stroke="white" stroke-width="1.5" stroke-linecap="round"/>
</svg>
