<svg width="42" height="42" viewBox="0 0 42 42" fill="none" xmlns="http://www.w3.org/2000/svg">
<rect width="42" height="42" rx="16" fill="white" fill-opacity="0.2"/>
<g clip-path="url(#clip0_28_125)">
<path d="M32.8728 26.5197C32.8437 26.457 32.8166 26.4051 32.7915 26.3635C32.3751 25.6135 31.5793 24.693 30.4047 23.6017L30.3799 23.5767L30.3675 23.5644L30.3549 23.5519H30.3423C29.8093 23.0437 29.4717 22.702 29.3303 22.5271C29.0716 22.1938 29.0137 21.8565 29.1551 21.5147C29.2549 21.2565 29.6301 20.7112 30.2797 19.878C30.6214 19.4364 30.892 19.0825 31.0918 18.8159C32.5331 16.8998 33.158 15.6753 32.9663 15.1421L32.8919 15.0175C32.8418 14.9425 32.7127 14.8739 32.5047 14.8113C32.2962 14.7488 32.0297 14.7385 31.7047 14.7801L28.106 14.805C28.0477 14.7843 27.9645 14.7863 27.856 14.8113C27.7477 14.8363 27.6935 14.8489 27.6935 14.8489L27.6309 14.8802L27.5812 14.9178C27.5395 14.9426 27.4937 14.9864 27.4436 15.0489C27.3939 15.1111 27.3523 15.1842 27.319 15.2675C26.9272 16.2755 26.4817 17.2127 25.9818 18.079C25.6735 18.5956 25.3904 19.0433 25.1319 19.4224C24.8737 19.8013 24.6571 20.0805 24.4823 20.2595C24.3073 20.4386 24.1493 20.5821 24.0074 20.6905C23.8657 20.799 23.7575 20.8448 23.6827 20.828C23.6076 20.8113 23.5369 20.7946 23.47 20.778C23.3534 20.703 23.2597 20.601 23.189 20.4719C23.118 20.3427 23.0702 20.1802 23.0452 19.9845C23.0204 19.7886 23.0057 19.6201 23.0015 19.4784C22.9976 19.3369 22.9994 19.1367 23.0078 18.8785C23.0165 18.6202 23.0204 18.4454 23.0204 18.3537C23.0204 18.0371 23.0265 17.6935 23.0389 17.3228C23.0515 16.9521 23.0617 16.6584 23.0703 16.442C23.0788 16.2254 23.0827 15.9962 23.0827 15.7546C23.0827 15.513 23.068 15.3235 23.0389 15.186C23.0102 15.0487 22.9661 14.9154 22.9081 14.7861C22.8496 14.657 22.7641 14.5571 22.6519 14.4862C22.5395 14.4154 22.3997 14.3592 22.2333 14.3175C21.7917 14.2176 21.2295 14.1635 20.5462 14.1551C18.9968 14.1385 18.0013 14.2385 17.5597 14.4551C17.3848 14.5466 17.2265 14.6717 17.085 14.8299C16.935 15.0132 16.914 15.1132 17.0223 15.1297C17.5222 15.2046 17.8761 15.3837 18.0844 15.6669L18.1595 15.817C18.2179 15.9253 18.2762 16.117 18.3345 16.3919C18.3928 16.6667 18.4304 16.9708 18.4469 17.3038C18.4885 17.9121 18.4885 18.4327 18.4469 18.8658C18.4052 19.2991 18.3658 19.6364 18.3282 19.878C18.2906 20.1196 18.2344 20.3154 18.1595 20.4653C18.0844 20.6152 18.0345 20.7069 18.0094 20.7402C17.9845 20.7734 17.9636 20.7944 17.9471 20.8026C17.8388 20.8441 17.7262 20.8652 17.6096 20.8652C17.4929 20.8652 17.3514 20.8069 17.1848 20.6902C17.0183 20.5735 16.8454 20.4132 16.6663 20.2091C16.4871 20.0049 16.2851 19.7196 16.0601 19.3531C15.8353 18.9866 15.602 18.5534 15.3604 18.0536L15.1605 17.6911C15.0356 17.4579 14.8649 17.1184 14.6483 16.6728C14.4315 16.227 14.24 15.7958 14.0734 15.3793C14.0069 15.2044 13.9069 15.0712 13.7736 14.9795L13.711 14.9419C13.6695 14.9087 13.6027 14.8734 13.5112 14.8357C13.4195 14.7981 13.3238 14.7712 13.2237 14.7546L9.79989 14.7794C9.45001 14.7794 9.21262 14.8587 9.08762 15.017L9.0376 15.0919C9.0126 15.1336 9 15.2002 9 15.2919C9 15.3836 9.02499 15.496 9.07502 15.6292C9.57484 16.8039 10.1184 17.9368 10.7056 19.0281C11.2929 20.1194 11.8032 20.9985 12.2363 21.6645C12.6695 22.331 13.111 22.9601 13.5609 23.5514C14.0108 24.1429 14.3085 24.522 14.4542 24.6885C14.6001 24.8553 14.7147 24.9801 14.798 25.0634L15.1104 25.3632C15.3104 25.5632 15.604 25.8027 15.9913 26.0817C16.3788 26.3609 16.8078 26.6357 17.2784 26.9067C17.7492 27.1772 18.2969 27.398 18.9217 27.5687C19.5465 27.7396 20.1546 27.8082 20.7461 27.7751H22.1832C22.4746 27.75 22.6954 27.6583 22.8455 27.5001L22.8952 27.4375C22.9286 27.3878 22.9599 27.3105 22.9888 27.2066C23.0181 27.1025 23.0326 26.9878 23.0326 26.863C23.024 26.5048 23.0513 26.1821 23.1136 25.8947C23.1759 25.6074 23.2469 25.3908 23.3263 25.2449C23.4057 25.0992 23.4952 24.9762 23.5949 24.8765C23.6947 24.7766 23.7659 24.716 23.8077 24.6952C23.8491 24.6742 23.8823 24.66 23.9073 24.6515C24.1072 24.5849 24.3425 24.6494 24.6135 24.8453C24.8843 25.0411 25.1383 25.2828 25.3758 25.5701C25.6133 25.8577 25.8985 26.1803 26.2317 26.5384C26.5651 26.8967 26.8566 27.163 27.1064 27.3382L27.3562 27.4882C27.523 27.5882 27.7396 27.6799 28.0063 27.7631C28.2724 27.8464 28.5056 27.8672 28.7058 27.8256L31.9046 27.7757C32.221 27.7757 32.4672 27.7233 32.6419 27.6194C32.8168 27.5152 32.9208 27.4005 32.9543 27.2758C32.9877 27.1508 32.9895 27.0091 32.9607 26.8507C32.931 26.6926 32.9018 26.5821 32.8728 26.5197Z" fill="white"/>
</g>
<defs>
<clipPath id="clip0_28_125">
<rect width="24" height="24" fill="white" transform="translate(9 9)"/>
</clipPath>
</defs>
</svg>
